<?xml version="1.0" encoding="utf-8"?>
<!-- Generator: Adobe Illustrator 21.0.0, SVG Export Plug-In . SVG Version: 6.00 Build 0)  -->
<svg version="1.1" id="Capa_1" xmlns="http://www.w3.org/2000/svg" xmlns:xlink="http://www.w3.org/1999/xlink" x="0px" y="0px"
	 viewBox="0 0 32 32" style="enable-background:new 0 0 32 32;" xml:space="preserve">
<style type="text/css">
	.st0{fill:#DCDCDC;stroke:#102B56;stroke-width:1.1555;stroke-miterlimit:10;}
	.st1{fill:#102B56;}
	.st2{fill:#9AC3E1;}
	.st3{fill:none;stroke:#102B56;stroke-width:1.3866;stroke-miterlimit:10;}
</style>
<path class="st0" d="M1.6,12.6C2.2,9.2,9.2,6,15.7,6c6.6,0,14.1,3.2,14.9,7.2c0,0.1,0.2,9.8,0,10.8c-0.2,0.9-2.8,5.5-13.6,5.5
	C1.3,29.5,1.7,24.7,1.4,24C1,22.8,1.5,12.9,1.6,12.6z"/>
<circle class="st1" cx="8.8" cy="17.5" r="3.1"/>
<circle class="st2" cx="8.7" cy="17.6" r="1.5"/>
<circle class="st1" cx="22" cy="17.7" r="3.1"/>
<circle class="st2" cx="22" cy="17.9" r="1.5"/>
<ellipse class="st3" cx="16.1" cy="23.4" rx="3.1" ry="0.1"/>
<circle class="st1" cx="16" cy="3.8" r="1.8"/>
<circle class="st2" cx="16" cy="3.8" r="0.9"/>
</svg>
